<svg width="346" height="137" viewBox="0 0 346 137" fill="none" xmlns="http://www.w3.org/2000/svg">
<path d="M21.8702 87.4153L66.656 87.9624L66.449 104.906L0.57107 104.102L1.82162 1.7343L22.9138 1.99197L21.8702 87.4153ZM74.5857 66.2608C74.6779 58.7145 76.2131 52.0061 79.1913 46.1358C82.1694 40.2655 86.3968 35.7465 91.8734 32.5788C97.3969 29.4117 103.768 27.8722 110.986 27.9604C121.251 28.0858 129.579 31.3284 135.971 37.6882C142.409 44.0485 145.937 52.6235 146.556 63.4131L146.633 68.6176C146.49 80.2886 143.118 89.6231 136.516 96.6211C129.915 103.572 121.131 106.981 110.163 106.847C99.195 106.713 90.4729 103.09 83.9968 95.9795C77.5676 88.8692 74.4268 79.2676 74.5745 67.1748L74.5857 66.2608ZM94.8865 67.9854C94.7983 75.2037 96.09 80.7511 98.7616 84.6278C101.434 88.4576 105.301 90.4034 110.363 90.4652C115.285 90.5254 119.151 88.6974 121.962 84.9815C124.774 81.2187 126.23 75.1892 126.332 66.8929C126.418 59.8153 125.103 54.3145 122.385 50.3903C119.667 46.4662 115.8 44.4735 110.785 44.4123C105.817 44.3516 101.949 46.2498 99.1833 50.1069C96.4178 53.9172 94.9855 59.8767 94.8865 67.9854ZM156.211 67.3986C156.353 55.7276 159.234 46.3636 164.851 39.3067C170.516 32.2504 178.059 28.7798 187.48 28.8948C195.823 28.9968 202.28 31.9352 206.851 37.7102L207.782 30.5492L226.202 30.7742L225.304 104.316C225.223 110.971 223.629 116.741 220.522 121.626C217.462 126.511 213.174 130.208 207.659 132.719C202.143 135.23 195.706 136.441 188.347 136.351C182.77 136.283 177.346 135.091 172.077 132.777C166.808 130.509 162.835 127.601 160.16 124.053L169.31 111.788C174.303 117.522 180.408 120.432 187.627 120.521C193.017 120.587 197.23 119.185 200.265 116.315C203.3 113.493 204.849 109.433 204.914 104.137L204.964 100.059C200.212 105.298 194.016 107.871 186.376 107.778C177.236 107.666 169.874 104.014 164.289 96.8198C158.752 89.5797 156.056 80.0539 156.2 68.2422L156.211 67.3986ZM176.511 69.1232C176.427 76.0133 177.744 81.4439 180.461 85.4149C183.179 89.339 186.952 91.3305 191.78 91.3895C197.967 91.4651 202.424 89.1991 205.153 84.5914L205.544 52.6016C202.882 47.9282 198.528 45.5545 192.481 45.4806C187.607 45.4211 183.739 47.3661 180.878 51.3159C178.064 55.2662 176.608 61.2019 176.511 69.1232ZM262.395 107.3L242.006 107.051L242.936 30.9787L263.325 31.2277L262.395 107.3ZM241.981 11.278C242.018 8.23138 243.056 5.73607 245.096 3.79209C247.182 1.84868 249.983 0.898444 253.499 0.941389C256.967 0.983761 259.72 2.00185 261.759 3.99564C263.797 5.98944 264.798 8.50966 264.76 11.5563C264.723 14.6498 263.637 17.168 261.504 19.1108C259.417 21.0543 256.663 22.0051 253.242 21.9633C249.82 21.9215 247.067 20.9034 244.982 18.909C242.943 16.9152 241.943 14.3715 241.981 11.278ZM298.83 31.6615L299.355 40.4576C304.875 33.7277 312.205 30.4185 321.345 30.5302C329.407 30.6287 335.378 33.069 339.257 37.8511C343.137 42.6332 345.066 49.7354 345.044 59.1578L344.444 108.303L324.125 108.054L324.719 59.4017C324.772 55.0895 323.873 51.9611 322.021 50.0165C320.171 48.025 317.066 47.0026 312.707 46.9493C306.988 46.8795 302.67 49.2644 299.751 54.1041L299.096 107.749L278.777 107.5L279.706 31.4279L298.83 31.6615Z" fill="url(#paint0_linear)"/>
<defs>
<linearGradient id="paint0_linear" x1="185.836" y1="-27.6451" x2="183.768" y2="141.645" gradientUnits="userSpaceOnUse">
<stop stop-color="#0008BF"/>
<stop offset="0.520833" stop-color="#2E3296" stop-opacity="0.79"/>
<stop offset="1" stop-opacity="0"/>
</linearGradient>
</defs>
</svg>
